<svg width="85" height="24" viewBox="0 0 85 24" fill="none" xmlns="http://www.w3.org/2000/svg">
<path d="M17.2795 24H13.851V12C13.851 10.4229 13.4624 8.98286 12.6853 7.68C11.9311 6.37714 10.9025 5.34857 9.59971 4.59429C8.29689 3.81714 6.85693 3.42857 5.27984 3.42857H3.42847V24H0V0H5.27984C7.4512 0 9.43971 0.537143 11.2454 1.61143C13.0739 2.68572 14.5138 4.09143 15.5652 5.82857C16.6166 4.09143 18.0452 2.68572 19.8508 1.61143C21.6793 0.537143 23.6793 0 25.8506 0H31.1305V24H27.702V3.42857H25.8506C24.2736 3.42857 22.8336 3.81714 21.5308 4.59429C20.2508 5.34857 19.2223 6.37714 18.4452 7.68C17.668 8.98286 17.2795 10.4229 17.2795 12V24Z" fill="#F5F5F5"/>
<path d="M57.8441 24H35.5591V17.1429C35.5591 15.8857 35.8677 14.7429 36.4848 13.7143C37.1019 12.6629 37.9247 11.8286 38.9533 11.2114C40.0047 10.5943 41.1589 10.2857 42.416 10.2857H50.9872C51.9243 10.2857 52.7243 9.95429 53.3871 9.29143C54.0728 8.60572 54.4157 7.79429 54.4157 6.85714C54.4157 5.92 54.0728 5.12 53.3871 4.45714C52.7243 3.77143 51.9243 3.42857 50.9872 3.42857H37.2733V0H50.9872C52.2443 0 53.3871 0.308572 54.4157 0.925715C55.4671 1.54286 56.3013 2.37714 56.9184 3.42857C57.5356 4.45714 57.8441 5.6 57.8441 6.85714C57.8441 8.11429 57.5356 9.26857 56.9184 10.32C56.3013 11.3486 55.4671 12.1714 54.4157 12.7886C53.3871 13.4057 52.2443 13.7143 50.9872 13.7143H42.416C41.4789 13.7143 40.6675 14.0571 39.9818 14.7429C39.2961 15.4057 38.9533 16.2057 38.9533 17.1429V20.5714H57.8441V24Z" fill="#F5F5F5"/>
<path d="M61.0007 0H64.4292V8.57143C64.4292 9.50857 64.7606 10.32 65.4235 11.0057C66.1092 11.6686 66.9206 12 67.8577 12H81.5715V0H85V24H81.5715V15.4286H67.8577C66.6006 15.4286 65.4463 15.12 64.3949 14.5029C63.3664 13.8857 62.5435 13.0629 61.9264 12.0343C61.3093 10.9829 61.0007 9.82857 61.0007 8.57143V0Z" fill="#F5F5F5"/>
</svg>
