<svg width="64" height="64" viewBox="0 0 64 64" fill="none" xmlns="http://www.w3.org/2000/svg">
<rect width="64" height="64" rx="12" fill="#211D32" fill-opacity="0.25"/>
<rect x="0.5" y="0.5" width="63" height="63" rx="11.5" stroke="#393257" stroke-opacity="0.5"/>
<path fill-rule="evenodd" clip-rule="evenodd" d="M37.1847 33.0849C37.5366 32.9927 38.2865 32.9607 38.8502 33.0156C39.4139 33.0688 40.2014 33.2656 40.6011 33.4499C41.0008 33.6343 41.7199 34.1642 42.1999 34.6268C42.6799 35.0894 43.2095 35.7488 43.3769 36.0891C43.5426 36.4312 43.7698 37.1881 43.8826 37.773C44.0329 38.5546 44.038 39.0598 43.9031 39.6784C43.8006 40.141 43.5358 40.8996 43.312 41.3623C43.09 41.8249 42.5707 42.518 42.159 42.9026C41.7491 43.2873 40.9889 43.8013 40.473 44.0459C39.7641 44.3809 39.2379 44.4925 38.3343 44.4996C37.3282 44.5067 36.9575 44.4181 36.0282 43.9519C35.3245 43.5975 34.6532 43.0799 34.1869 42.534C33.7821 42.0589 33.2951 41.2329 33.1021 40.6976C32.8322 39.9461 32.7689 39.4391 32.827 38.482C32.868 37.7996 33.0525 36.8832 33.2387 36.4436C33.4232 36.004 33.8776 35.2968 34.2483 34.8714C34.619 34.4442 35.2869 33.9054 35.7328 33.6749C36.1786 33.4428 36.8329 33.177 37.1847 33.0849ZM38.4233 34.1394C37.6291 34.1411 37.0704 34.2599 36.4589 34.5524C35.984 34.781 35.3178 35.311 34.9574 35.7471C34.6004 36.1796 34.1954 36.931 34.0588 37.4185C33.9204 37.9059 33.8077 38.5635 33.8094 38.8808C33.8111 39.1981 33.9598 39.8751 34.1409 40.3874C34.3646 41.0219 34.7335 41.5714 35.3041 42.1156C35.7619 42.5552 36.4401 43.0125 36.8107 43.1313C37.1814 43.2518 37.9075 43.351 38.4233 43.351C39.0536 43.3527 39.6447 43.2162 40.2169 42.938C40.6867 42.7111 41.3239 42.2521 41.633 41.9207C41.9422 41.5892 42.3452 40.9989 42.528 40.609C42.7467 40.141 42.8611 39.5242 42.8628 38.7922C42.8628 38.1753 42.7451 37.3901 42.5947 37.0197C42.4461 36.6545 42.113 36.0767 41.8551 35.7346C41.5954 35.3925 40.9667 34.8945 40.4577 34.6251C39.7249 34.2369 39.303 34.1358 38.4233 34.1394Z" fill="url(#paint0_linear_3198_3932)"/>
<path fill-rule="evenodd" clip-rule="evenodd" d="M31.2488 20.5019C37.5468 20.4895 39.004 20.5338 39.747 20.7553C40.4098 20.9521 40.8488 21.2427 41.4262 21.8649C41.9574 22.4374 42.2854 22.9904 42.4528 23.593C42.6304 24.2418 42.697 25.5162 42.6953 28.3344C42.6936 31.8455 42.6663 32.1985 42.3947 32.2995C42.2256 32.3616 41.6534 32.1878 40.046 31.392L22.7932 31.2147L21.9391 30.7221C21.4696 30.4511 21.0666 30.2314 21.0423 30.2347C21.0184 30.2382 20.9961 31.7749 20.9944 33.6519C20.9876 37.0373 20.991 37.0711 21.4642 38.0388C21.84 38.8099 22.0997 39.0972 22.7078 39.4144C23.4372 39.7937 23.6713 39.815 27.2772 39.8132C31.0607 39.8115 31.0779 39.8131 31.2283 40.2101C31.3119 40.4299 31.3495 40.6692 31.3137 40.7419C31.2778 40.8146 29.4432 40.8748 27.2345 40.8748C24.2845 40.8748 23.0734 40.8128 22.6651 40.6391C22.3593 40.5097 21.811 40.1304 21.4472 39.7971C21.0833 39.4639 20.6221 38.8719 20.4223 38.482C20.0738 37.8013 20.0583 37.5106 20.0139 31.1261C19.9746 25.5924 20.0105 24.3233 20.2274 23.5487C20.4102 22.8911 20.7126 22.3842 21.2558 21.8205C21.7597 21.2977 22.303 20.9361 22.8359 20.7695C23.4834 20.5675 25.1797 20.5125 31.2488 20.5019ZM39.5337 21.7657C32.6497 21.6629 28.9155 21.6751 26.794 21.7265L22.9368 21.8205C21.9649 22.5756 21.5548 23.0542 21.396 23.3715C21.1978 23.7685 21.0851 24.552 21.0321 25.8973C20.9638 27.629 20.9964 27.9303 21.3192 28.6003C21.5345 29.047 21.9444 29.5167 22.3236 29.7524C22.9608 30.1495 23.019 30.1513 31.676 30.2399C39.5473 30.3196 40.4407 30.3586 40.9429 30.6387L41.4981 30.9489C41.4998 24.3783 41.4604 23.8713 41.182 23.3272C41.0077 22.9851 40.5653 22.4941 40.1998 22.2353L39.5337 21.7657Z" fill="url(#paint1_linear_3198_3932)"/>
<path fill-rule="evenodd" clip-rule="evenodd" d="M25.8253 34.1536C26.3342 34.1429 26.5375 34.2387 26.8125 34.6268C27.0038 34.8944 27.1575 35.2932 27.1541 35.513C27.1524 35.7328 26.9236 36.1511 26.6503 36.4436C26.3497 36.7626 25.9739 36.9753 25.7108 36.9753C25.4495 36.9753 25.0617 36.7591 24.7576 36.4436C24.4758 36.1511 24.2452 35.7913 24.2452 35.646C24.2452 35.5006 24.3614 35.1478 24.5014 34.8643C24.6432 34.5807 24.855 34.3077 24.9712 34.2581C25.0891 34.2085 25.4734 34.1606 25.8253 34.1536ZM25.8014 34.8484C25.6238 34.8484 25.3931 34.9689 25.2889 35.1142C25.1848 35.2596 25.1199 35.5201 25.1438 35.6903C25.1694 35.8711 25.3659 36.0253 25.6136 36.0573C25.8544 36.0909 26.1312 35.9934 26.2525 35.8357C26.4028 35.639 26.4165 35.4545 26.2952 35.2029C26.2012 35.0079 25.9791 34.8484 25.8014 34.8484Z" fill="url(#paint2_linear_3198_3932)"/>
<path d="M40.2543 36.9754C40.2816 36.9754 40.4353 37.0232 40.5976 37.0834C40.7615 37.1419 40.876 37.3209 40.8538 37.4822C40.8299 37.6417 40.1792 38.4324 39.4037 39.2371C38.6299 40.0417 37.9193 40.701 37.8253 40.7011C37.7313 40.7011 37.2308 40.2651 36.7149 39.7333C36.0419 39.0403 35.813 38.6876 35.9052 38.4909C35.9787 38.3402 36.17 38.2179 36.3323 38.2179C36.4962 38.2197 36.8977 38.4979 37.8253 39.4533L39.0158 38.2144C39.6715 37.5341 40.2282 36.9759 40.2543 36.9754Z" fill="url(#paint3_linear_3198_3932)"/>
<path fill-rule="evenodd" clip-rule="evenodd" d="M36.5937 24.5662C36.8021 24.4847 37.1249 24.4597 37.3128 24.5129C37.5007 24.5661 37.8287 24.7788 38.044 24.9862C38.2968 25.2325 38.43 25.5676 38.4283 25.9416C38.4249 26.3103 38.2728 26.6772 38.0046 26.9608C37.7279 27.2533 37.393 27.4056 37.0224 27.4091C36.6551 27.4109 36.3289 27.2727 36.0864 27.0103C35.8831 26.787 35.6661 26.406 35.6063 26.1632C35.5311 25.8566 35.608 25.5658 35.8573 25.2184C36.0555 24.9419 36.387 24.6478 36.5937 24.5662ZM37.0482 25.2699C36.903 25.2734 36.6758 25.3727 36.5443 25.4897C36.4128 25.6067 36.3171 25.8265 36.3324 25.9771C36.3461 26.1278 36.4777 26.3511 36.6229 26.4734C36.7663 26.5957 37.0397 26.6542 37.2276 26.6063C37.4154 26.5585 37.5948 26.3546 37.6273 26.1544C37.6597 25.9559 37.6033 25.6722 37.4991 25.5269C37.3967 25.3798 37.1934 25.2646 37.0482 25.2699Z" fill="url(#paint4_linear_3198_3932)"/>
<path d="M24.2963 25.7147C24.3766 25.5499 24.5919 25.4524 24.8088 25.4861C25.0514 25.5233 25.1846 25.6669 25.1846 25.8956C25.1846 26.11 25.0514 26.2695 24.843 26.305C24.6551 26.3369 24.4245 26.2801 24.3305 26.1809C24.2349 26.0798 24.2212 25.8725 24.2963 25.7147Z" fill="url(#paint5_linear_3198_3932)"/>
<path d="M26.1754 25.7147C26.2556 25.5499 26.4709 25.4524 26.6878 25.4861C26.9304 25.5233 27.0636 25.6669 27.0636 25.8956C27.0636 26.11 26.9304 26.2695 26.722 26.305C26.5341 26.3369 26.3035 26.2801 26.2096 26.1809C26.1139 26.0798 26.1002 25.8725 26.1754 25.7147Z" fill="url(#paint6_linear_3198_3932)"/>
<defs>
<linearGradient id="paint0_linear_3198_3932" x1="40.7715" y1="44.5" x2="23.2285" y2="20.5" gradientUnits="userSpaceOnUse">
<stop stop-color="#A687F6"/>
<stop offset="1" stop-color="#BDA7F3"/>
</linearGradient>
<linearGradient id="paint1_linear_3198_3932" x1="40.7715" y1="44.5" x2="23.2285" y2="20.5" gradientUnits="userSpaceOnUse">
<stop stop-color="#A687F6"/>
<stop offset="1" stop-color="#BDA7F3"/>
</linearGradient>
<linearGradient id="paint2_linear_3198_3932" x1="40.7715" y1="44.5" x2="23.2285" y2="20.5" gradientUnits="userSpaceOnUse">
<stop stop-color="#A687F6"/>
<stop offset="1" stop-color="#BDA7F3"/>
</linearGradient>
<linearGradient id="paint3_linear_3198_3932" x1="40.7715" y1="44.5" x2="23.2285" y2="20.5" gradientUnits="userSpaceOnUse">
<stop stop-color="#A687F6"/>
<stop offset="1" stop-color="#BDA7F3"/>
</linearGradient>
<linearGradient id="paint4_linear_3198_3932" x1="40.7715" y1="44.5" x2="23.2285" y2="20.5" gradientUnits="userSpaceOnUse">
<stop stop-color="#A687F6"/>
<stop offset="1" stop-color="#BDA7F3"/>
</linearGradient>
<linearGradient id="paint5_linear_3198_3932" x1="40.7715" y1="44.5" x2="23.2285" y2="20.5" gradientUnits="userSpaceOnUse">
<stop stop-color="#A687F6"/>
<stop offset="1" stop-color="#BDA7F3"/>
</linearGradient>
<linearGradient id="paint6_linear_3198_3932" x1="40.7715" y1="44.5" x2="23.2285" y2="20.5" gradientUnits="userSpaceOnUse">
<stop stop-color="#A687F6"/>
<stop offset="1" stop-color="#BDA7F3"/>
</linearGradient>
</defs>
</svg>
