<svg width="64" height="64" viewBox="0 0 64 64" fill="none" xmlns="http://www.w3.org/2000/svg">
<rect width="64" height="64" rx="12" fill="#211D32" fill-opacity="0.25"/>
<rect x="0.5" y="0.5" width="63" height="63" rx="11.5" stroke="#393257" stroke-opacity="0.5"/>
<path d="M31.9185 32.8929C32.0359 32.8931 32.147 32.9619 32.2291 33.0335C32.3168 33.1101 32.3983 33.2138 32.4546 33.3284C32.5242 33.4701 32.5651 33.6075 32.5455 33.7474C32.5256 33.8888 32.4482 34.0057 32.3414 34.1146L32.3404 34.1155C32.2511 34.2053 32.1367 34.2732 32.023 34.3118C31.9125 34.3494 31.7826 34.3652 31.6685 34.3275C31.5473 34.2871 31.4548 34.1834 31.3941 34.0784C31.3309 33.9691 31.2873 33.8345 31.2779 33.6986C31.2692 33.5717 31.2792 33.4413 31.3033 33.3314C31.3153 33.2764 31.3318 33.2229 31.3531 33.1761C31.3732 33.1319 31.4033 33.0803 31.4498 33.0433C31.5099 32.9946 31.5912 32.9589 31.6675 32.9349C31.7463 32.9101 31.8363 32.893 31.9185 32.8929Z" fill="url(#paint0_linear_3198_3936)"/>
<path fill-rule="evenodd" clip-rule="evenodd" d="M31.9302 26.5775C32.1442 26.5747 32.3912 26.6007 32.6177 26.6439C32.8422 26.6867 33.059 26.7494 33.2076 26.8245C33.3549 26.8991 33.5224 27.026 33.6744 27.1663C33.8269 27.3072 33.9728 27.4697 34.0728 27.6224L34.1519 27.762C34.2289 27.9169 34.2991 28.115 34.358 28.3275C34.4374 28.6144 34.5004 28.9414 34.5289 29.2513C34.5504 29.4829 34.5692 29.661 34.5914 29.7991C34.6137 29.9387 34.6375 30.0283 34.6636 30.0872C34.6879 30.1419 34.7117 30.164 34.7339 30.1771C34.7612 30.193 34.8035 30.2052 34.8824 30.2142C35.0219 30.2303 35.1726 30.299 35.3013 30.3861C35.4316 30.4742 35.5556 30.5914 35.6402 30.72C35.7632 30.9064 35.8299 31.1787 35.8697 31.6253C35.9098 32.0767 35.9234 32.7319 35.9234 33.7025C35.9225 34.9066 35.9196 35.5502 35.8629 35.9437C35.8338 36.1449 35.7896 36.2917 35.7193 36.4193C35.65 36.5448 35.5599 36.643 35.4576 36.7493C35.3543 36.8562 35.2589 36.9547 35.1285 37.0286C34.9961 37.1036 34.8373 37.1481 34.6099 37.1771C34.1626 37.234 33.3912 37.2347 31.897 37.2347C30.403 37.2347 29.6317 37.234 29.1832 37.1771C28.9551 37.1481 28.796 37.1033 28.6627 37.0286C28.5313 36.955 28.4348 36.8573 28.3296 36.7503C28.2251 36.6439 28.1318 36.5466 28.0611 36.4232C27.9889 36.2969 27.9451 36.1522 27.9175 35.9525C27.8639 35.5624 27.8685 34.9177 27.8814 33.6956C27.8909 32.8188 27.915 32.1575 27.9576 31.68C27.9789 31.4413 28.0047 31.2447 28.0367 31.0892C28.0681 30.9366 28.1074 30.8111 28.1607 30.721L28.1617 30.72C28.3284 30.4428 28.6377 30.2572 28.9546 30.2571C29.0545 30.2571 29.1112 30.2531 29.147 30.2425C29.1724 30.235 29.1791 30.2269 29.1871 30.2122C29.2008 30.187 29.2161 30.1369 29.2252 30.0335C29.234 29.9327 29.2359 29.7983 29.2359 29.6165C29.2359 29.1715 29.3194 28.5787 29.4302 28.2894C29.5367 28.0072 29.7877 27.5849 29.9908 27.3411C30.0957 27.2153 30.2333 27.0871 30.3707 26.9808C30.5058 26.8761 30.6516 26.7842 30.774 26.7386L30.8755 26.7064C30.9883 26.6755 31.1325 26.6488 31.2838 26.6282C31.4892 26.6003 31.7218 26.5811 31.9302 26.5775ZM34.5533 31.6116C32.2157 31.6122 30.8814 31.626 30.1226 31.6605C29.7334 31.6781 29.5039 31.7005 29.3707 31.7279C29.3156 31.7391 29.2842 31.7505 29.2671 31.7581C29.2659 31.7669 29.264 31.7792 29.2623 31.7952C29.2582 31.8336 29.2541 31.8851 29.2505 31.9486C29.2435 32.0754 29.2385 32.2457 29.2349 32.4476C29.2279 32.8515 29.2286 33.3781 29.2398 33.929L29.274 35.7923H34.5025L34.5533 31.6116ZM31.9097 27.9212C31.7705 27.9212 31.5977 27.9543 31.4332 28.0101C31.3091 28.0522 31.1981 28.1049 31.1138 28.1595L31.0386 28.2142C30.9056 28.328 30.8254 28.438 30.773 28.6009C30.7179 28.7724 30.6916 29.0085 30.6822 29.3782L30.6607 30.1732L33.2037 30.2523C33.2008 29.5556 33.1795 29.1496 33.1226 28.8792C33.0928 28.7377 33.0546 28.6375 33.0074 28.555C32.9598 28.4719 32.899 28.3992 32.817 28.3157C32.5536 28.0477 32.2586 27.9212 31.9097 27.9212Z" fill="url(#paint1_linear_3198_3936)"/>
<path fill-rule="evenodd" clip-rule="evenodd" d="M31.7955 18.8509C31.8437 18.8484 31.8924 18.861 31.9283 18.8734C31.9693 18.8875 32.0159 18.908 32.065 18.932C32.1635 18.9801 32.2848 19.0487 32.4195 19.1321C32.6902 19.2999 33.0256 19.5321 33.3609 19.7884C34.0193 20.2916 35.099 20.99 35.7554 21.3372C36.413 21.685 37.5336 22.1684 38.2369 22.4066C38.9409 22.646 40.1348 22.9341 40.8853 23.0452C41.2662 23.1016 41.628 23.1618 41.9039 23.2132C42.0415 23.2388 42.1593 23.2633 42.2476 23.2835C42.2917 23.2936 42.3303 23.303 42.3609 23.3118L42.4507 23.346L42.4546 23.3489L42.4879 23.3773C42.4961 23.3866 42.5012 23.3954 42.5045 23.4007C42.5119 23.4129 42.517 23.4241 42.5201 23.432C42.5262 23.4478 42.5309 23.4648 42.5338 23.4779C42.5396 23.5047 42.5441 23.5383 42.5484 23.5755C42.5572 23.6515 42.5651 23.7583 42.5728 23.89C42.5882 24.1541 42.6024 24.5292 42.6138 24.9866C42.6367 25.9021 42.6508 27.1532 42.65 28.5189C42.6484 30.9047 42.5857 33.3455 42.5054 34.3802L42.4703 34.7337C42.3698 35.4372 42.1152 36.2777 41.7574 37.1038L41.5982 37.4564C41.0635 38.588 40.5853 39.2554 39.5474 40.3245C38.8078 41.0864 37.6936 42.0587 37.065 42.4896C36.44 42.9179 35.1136 43.6868 34.1148 44.2015C33.6146 44.4592 33.1198 44.6941 32.7252 44.8646C32.5282 44.9496 32.3541 45.019 32.2164 45.0677C32.1477 45.092 32.0858 45.1125 32.0338 45.1263C31.9859 45.1389 31.9339 45.1498 31.8892 45.1497H31.8873C31.8426 45.1495 31.7903 45.1375 31.7418 45.1243C31.6887 45.11 31.6251 45.0891 31.5543 45.0638C31.4124 45.0131 31.2326 44.9411 31.0279 44.8529C30.6178 44.6761 30.1011 44.4328 29.5767 44.1663C28.5262 43.6306 27.0035 42.6899 26.189 42.0667L25.8726 41.8167C25.1126 41.1979 24.2216 40.3498 23.7652 39.7991C23.2451 39.1715 22.5599 38.101 22.2349 37.4124C21.9145 36.7299 21.5702 35.7683 21.4703 35.2689L21.4713 35.2679C21.4423 35.1243 21.4183 34.8538 21.4 34.4056C21.3814 33.952 21.3675 33.3069 21.3589 32.4085C21.3419 30.6114 21.3471 27.7966 21.3834 23.4652L21.3843 23.3392L21.5084 23.3187L22.8033 23.1019C23.5097 22.9834 24.6285 22.72 25.2867 22.5198C25.9393 22.3196 27.1623 21.7895 27.9986 21.3411L28.3238 21.1614C29.1045 20.7161 30.0161 20.1066 30.4752 19.7191C30.7458 19.4906 31.0218 19.281 31.2496 19.1263C31.3633 19.0491 31.4678 18.9844 31.5543 18.9378C31.5973 18.9146 31.6382 18.8939 31.6754 18.8792C31.7091 18.8659 31.7512 18.8533 31.7935 18.8509H31.7955ZM31.9302 20.5286C31.8573 20.5557 31.7572 20.6039 31.6353 20.6712C31.3921 20.8055 31.0783 21.0078 30.7545 21.2464C30.1748 21.6719 29.2097 22.2759 28.4644 22.6839L28.1607 22.846C27.4866 23.1938 26.3542 23.6287 25.4703 23.888L25.1089 23.9876C24.6559 24.1043 24.1896 24.2095 23.8033 24.2855C23.5187 24.3414 23.2683 24.3836 23.0982 24.4007L22.9566 24.4085L22.6334 24.4075L22.7183 35.2044C24.0427 37.9948 24.4662 38.5897 25.4117 39.5472C26.0001 40.1431 26.9089 40.918 27.565 41.3909L27.8296 41.5736C28.4887 42.0093 29.6099 42.6514 30.315 42.9964C30.6679 43.1686 31.0262 43.3256 31.3189 43.4388C31.4654 43.4954 31.5947 43.5407 31.6968 43.5716C31.8028 43.6037 31.8651 43.614 31.8892 43.6146C31.9116 43.6144 31.9759 43.6042 32.0884 43.5696C32.195 43.537 32.3297 43.4891 32.4839 43.429C32.7925 43.3088 33.173 43.1421 33.5494 42.9583C34.3021 42.5908 35.5008 41.8906 36.2056 41.4046C36.9092 40.9223 37.9988 39.9873 38.6236 39.3304C39.3975 38.5164 39.9488 37.7281 40.3638 36.845C40.7007 36.1258 41.0545 35.1112 41.148 34.598C41.1955 34.3381 41.2348 33.6068 41.2584 32.598C41.2818 31.5955 41.2889 30.3329 41.2759 29.0208L41.232 24.5032C38.7654 23.9943 37.4251 23.5928 36.6646 23.2796C35.9902 23.0018 34.8879 22.4067 34.0464 21.8743L33.7037 21.6507C32.901 21.1092 32.1652 20.619 31.9937 20.5091C31.9792 20.5124 31.9579 20.5184 31.9302 20.5286Z" fill="url(#paint2_linear_3198_3936)"/>
<defs>
<linearGradient id="paint0_linear_3198_3936" x1="39.6751" y1="44.999" x2="19.8281" y2="23.0686" gradientUnits="userSpaceOnUse">
<stop stop-color="#A687F6"/>
<stop offset="1" stop-color="#BDA7F3"/>
</linearGradient>
<linearGradient id="paint1_linear_3198_3936" x1="39.6751" y1="44.999" x2="19.8281" y2="23.0686" gradientUnits="userSpaceOnUse">
<stop stop-color="#A687F6"/>
<stop offset="1" stop-color="#BDA7F3"/>
</linearGradient>
<linearGradient id="paint2_linear_3198_3936" x1="39.6751" y1="44.999" x2="19.8281" y2="23.0686" gradientUnits="userSpaceOnUse">
<stop stop-color="#A687F6"/>
<stop offset="1" stop-color="#BDA7F3"/>
</linearGradient>
</defs>
</svg>
