<svg width="64" height="64" viewBox="0 0 64 64" fill="none" xmlns="http://www.w3.org/2000/svg">
<rect width="64" height="64" rx="12" fill="#211D32" fill-opacity="0.25"/>
<rect x="0.5" y="0.5" width="63" height="63" rx="11.5" stroke="#393257" stroke-opacity="0.5"/>
<path d="M20.3559 20.8636C20.4338 20.8482 20.5275 20.8412 20.6059 20.8656L20.6099 20.8665C20.6575 20.8827 20.682 20.9167 20.6909 20.93C20.7016 20.9461 20.7088 20.9611 20.7124 20.971C20.7198 20.9914 20.7244 21.014 20.728 21.0335C20.7355 21.0741 20.7416 21.1301 20.7475 21.2005C20.7596 21.3429 20.7708 21.5613 20.7817 21.8734C20.8036 22.4989 20.8242 23.5101 20.8433 25.0619C20.8811 28.1479 20.9138 33.3776 20.9458 41.9798L42.6675 42.0589L42.8169 42.0599V43.1497H19.9419L19.8755 32.1048C19.8481 27.4669 19.8402 24.7373 19.8628 23.1537C19.8741 22.3627 19.893 21.8529 19.9214 21.5335C19.9355 21.3747 19.9526 21.2561 19.9741 21.1712C19.9848 21.129 19.9982 21.0893 20.0161 21.055C20.0335 21.0217 20.0614 20.981 20.1079 20.9544C20.1847 20.9108 20.2735 20.88 20.3559 20.8636Z" fill="url(#paint0_linear_3198_3938)"/>
<path fill-rule="evenodd" clip-rule="evenodd" d="M42.0767 26.0247C42.1975 26.0228 42.3683 26.0579 42.5386 26.1078C42.7128 26.1588 42.9029 26.2301 43.0679 26.3099C43.2402 26.3933 43.4186 26.5202 43.5688 26.6566C43.7174 26.7914 43.8497 26.9468 43.9204 27.0902C44.046 27.3451 44.1498 27.7418 44.1499 27.9857C44.1499 28.1128 44.1207 28.2835 44.0786 28.4525C44.036 28.6234 43.9765 28.8039 43.9106 28.9544C43.7527 29.3116 43.4121 29.6406 43.0171 29.8363L43.0161 29.8372C42.5966 30.0418 42.1311 30.1212 41.0308 30.0365L38.103 33.1458C37.2839 34.0159 36.5097 34.8124 35.9233 35.3958C35.6304 35.6873 35.3831 35.9265 35.1997 36.0951C35.1082 36.1791 35.031 36.2477 34.9712 36.2962C34.9416 36.3202 34.914 36.3407 34.8901 36.3568C34.8782 36.3648 34.8653 36.3732 34.852 36.3802C34.8407 36.3862 34.8204 36.3966 34.7954 36.4017C34.7465 36.4112 34.7015 36.3993 34.6753 36.39C34.6459 36.3794 34.6159 36.3635 34.5864 36.346C34.527 36.3107 34.4521 36.2571 34.3608 36.1839C34.1774 36.0369 33.9104 35.7985 33.5298 35.4408C32.782 34.7378 31.5877 33.5628 29.7183 31.6771L27.0503 34.4574C26.027 35.5244 25.3125 36.2447 24.8276 36.6908C24.5858 36.9132 24.3958 37.0719 24.2515 37.1712C24.1798 37.2205 24.114 37.2596 24.0542 37.2835C23.9991 37.3056 23.9242 37.3245 23.8491 37.3011C23.7336 37.2658 23.6395 37.1836 23.5757 37.0902C23.5114 36.996 23.4683 36.8782 23.4683 36.7572C23.4683 36.6975 23.493 36.6371 23.5151 36.5912C23.54 36.5395 23.5755 36.4806 23.6177 36.4163C23.7023 36.2876 23.8232 36.1256 23.9741 35.9398C24.2765 35.5674 24.7046 35.0877 25.2095 34.5589C26.1435 33.581 27.4585 32.196 28.1323 31.4788C28.4718 31.1175 28.81 30.7885 29.0815 30.5492C29.217 30.4298 29.338 30.3301 29.436 30.2601C29.4847 30.2253 29.5308 30.1958 29.5718 30.1742C29.6055 30.1564 29.6601 30.1298 29.7183 30.1302C29.766 30.1309 29.8075 30.1521 29.8267 30.1624C29.8521 30.1761 29.8799 30.1942 29.9087 30.2152C29.9666 30.2574 30.042 30.3194 30.1362 30.4027C30.3256 30.57 30.6014 30.8319 30.9849 31.2113C31.7366 31.9551 32.9083 33.1584 34.6694 35.0081L40.1597 29.1058L40.1089 28.4261L40.1001 28.2425C40.0915 27.8165 40.1669 27.4002 40.3198 27.0902C40.3999 26.9278 40.5316 26.7599 40.6772 26.6175C40.8227 26.4753 40.9921 26.3482 41.1548 26.2747C41.3031 26.2079 41.4778 26.1477 41.6401 26.1029C41.7998 26.0589 41.9601 26.0266 42.0767 26.0247ZM42.1558 27.265C42.1078 27.2655 42.0187 27.2853 41.9077 27.3275C41.7993 27.3687 41.6854 27.4257 41.5933 27.4867C41.4757 27.5641 41.4047 27.642 41.3628 27.7269C41.3206 27.8123 41.3001 27.9193 41.3071 28.0677L41.3159 28.1595C41.3486 28.3682 41.4606 28.5494 41.6147 28.6537C41.7007 28.7116 41.8092 28.7657 41.9136 28.805C42.0202 28.8452 42.1073 28.8632 42.1558 28.8636C42.1944 28.8632 42.2729 28.8422 42.3725 28.7884C42.4675 28.7372 42.5646 28.6663 42.6392 28.5912C42.7121 28.5175 42.7817 28.4171 42.8325 28.3148C42.8849 28.2091 42.9087 28.1182 42.9087 28.0648C42.9086 28.0113 42.8848 27.9213 42.8325 27.8158C42.7817 27.7132 42.7123 27.6122 42.6392 27.5384C42.5645 27.4632 42.4676 27.3924 42.3725 27.3412C42.2729 27.2874 42.1944 27.2654 42.1558 27.265Z" fill="url(#paint1_linear_3198_3938)"/>
<defs>
<linearGradient id="paint0_linear_3198_3938" x1="40.7715" y1="42.999" x2="25.1623" y2="19.7033" gradientUnits="userSpaceOnUse">
<stop stop-color="#A687F6"/>
<stop offset="1" stop-color="#BDA7F3"/>
</linearGradient>
<linearGradient id="paint1_linear_3198_3938" x1="40.7715" y1="42.999" x2="25.1623" y2="19.7033" gradientUnits="userSpaceOnUse">
<stop stop-color="#A687F6"/>
<stop offset="1" stop-color="#BDA7F3"/>
</linearGradient>
</defs>
</svg>
