<svg width="64" height="64" viewBox="0 0 64 64" fill="none" xmlns="http://www.w3.org/2000/svg">
<rect width="64" height="64" rx="12" fill="#211D32" fill-opacity="0.25"/>
<rect x="0.5" y="0.5" width="63" height="63" rx="11.5" stroke="#393257" stroke-opacity="0.5"/>
<path fill-rule="evenodd" clip-rule="evenodd" d="M31.8519 29.6541C32.0072 29.6541 32.2007 29.7189 32.3812 29.8074C32.5659 29.8981 32.7571 30.0234 32.9115 30.1629C33.2787 30.4949 33.4885 30.8679 33.513 31.2801C33.5378 31.705 33.3998 32.042 33.0794 32.3738C32.9539 32.5047 32.7952 32.6317 32.6409 32.7322C32.4896 32.8308 32.3279 32.9133 32.1966 32.9432L32.1956 32.9442C32.0613 32.9736 31.8849 32.9618 31.7152 32.9295C31.5421 32.8966 31.3573 32.838 31.2025 32.7596C31.0494 32.6821 30.8922 32.5722 30.7611 32.4569C30.6327 32.344 30.516 32.2144 30.4564 32.0945C30.4016 31.9843 30.3563 31.8351 30.3265 31.6863C30.2965 31.5367 30.2797 31.3754 30.2845 31.2391C30.2891 31.0842 30.3592 30.8937 30.4525 30.7166C30.5481 30.5352 30.6781 30.3482 30.8226 30.199L30.9417 30.0848C31.0649 29.9752 31.1983 29.8819 31.3304 29.8104C31.5037 29.7166 31.6873 29.6542 31.8519 29.6541ZM31.6126 31.0145C31.566 31.0202 31.5268 31.028 31.4974 31.0369C31.4707 31.045 31.4594 31.0514 31.4573 31.0526C31.457 31.0529 31.4553 31.0547 31.4525 31.0584C31.4489 31.0631 31.4438 31.0696 31.4388 31.0789C31.4287 31.0978 31.4191 31.124 31.4105 31.1551C31.3932 31.2179 31.385 31.2919 31.3909 31.3592L31.4163 31.4451C31.4312 31.4782 31.4522 31.5151 31.4808 31.5526C31.5365 31.6257 31.6083 31.6874 31.6781 31.7225C31.7845 31.776 31.8615 31.7924 31.9232 31.7879C31.983 31.7836 32.0466 31.7581 32.1243 31.6961C32.1721 31.6578 32.2189 31.5908 32.2503 31.5086C32.2818 31.4262 32.2916 31.3439 32.2816 31.282C32.2694 31.2071 32.2358 31.15 32.1829 31.1072C32.128 31.0628 32.0442 31.0274 31.9261 31.0135C31.8191 31.0013 31.706 31.0029 31.6126 31.0145Z" fill="url(#paint0_linear_3198_3947)"/>
<path fill-rule="evenodd" clip-rule="evenodd" d="M32.055 26.4178C32.5265 26.4346 33.1425 26.5335 33.5267 26.661C33.9146 26.7889 34.5048 27.1314 34.9359 27.4666L35.1097 27.6092C35.5414 27.9854 36.0663 28.6382 36.2825 29.0711L36.2835 29.0721C36.4684 29.4472 36.6627 30.0586 36.7532 30.5311L36.7855 30.7244L36.8099 30.95C36.8519 31.4762 36.7915 32.011 36.6312 32.5809C36.4492 33.2278 36.1009 33.8481 35.6019 34.4168C35.1884 34.8889 34.4611 35.4728 33.974 35.7205C33.3075 36.061 32.8059 36.1723 31.9515 36.1776C31.2689 36.1835 30.724 36.1018 30.2279 35.9119L30.0179 35.824C29.6363 35.6491 29.0918 35.2988 28.7142 34.992L28.5638 34.8641C28.1896 34.5269 27.6982 33.8625 27.4642 33.3758C27.1379 32.7016 27.0367 32.1957 27.0384 31.3006C27.0401 30.4611 27.1434 29.9006 27.4134 29.3533L27.5013 29.1883C27.7281 28.7837 28.1104 28.2586 28.4173 27.9344L28.6995 27.6531C28.9501 27.4181 29.2262 27.1912 29.4339 27.0535L29.5501 26.9822C29.8211 26.8284 30.252 26.6446 30.5179 26.5692C30.7874 26.4941 31.3904 26.4262 31.8626 26.4158L32.055 26.4178ZM31.7835 27.7488C31.4666 27.7555 30.9831 27.8234 30.7161 27.8983C30.6001 27.9317 30.4086 28.0351 30.1878 28.1854C29.9707 28.3331 29.7394 28.5178 29.5472 28.7029C29.3556 28.8874 29.1507 29.1271 28.9769 29.3641C28.8017 29.6028 28.6645 29.8294 28.6009 29.9881C28.4832 30.2786 28.3835 30.7872 28.3636 31.1805L28.3597 31.3416C28.363 31.7452 28.5017 32.379 28.6615 32.7361C28.7382 32.9076 28.8909 33.1395 29.0794 33.3758C29.2668 33.6106 29.4825 33.8412 29.681 34.0106C30.1541 34.4171 30.6906 34.6922 31.2181 34.8094L31.43 34.8514C31.9087 34.9353 32.2792 34.9219 32.6771 34.8162C33.0306 34.7225 33.6265 34.4318 33.9886 34.1736L34.1341 34.0594C34.4762 33.7698 34.8296 33.3213 35.0384 32.8953C35.2988 32.363 35.4318 31.8154 35.4222 31.3465C35.4141 30.9439 35.2705 30.2749 35.1038 29.8738C34.9392 29.4795 34.5352 28.9207 34.2152 28.6473C33.8912 28.3691 33.3354 28.0478 32.9925 27.9403C32.642 27.8282 32.0927 27.7424 31.7835 27.7488Z" fill="url(#paint1_linear_3198_3947)"/>
<path fill-rule="evenodd" clip-rule="evenodd" d="M33.4827 19.8699C36.4813 19.8973 38.2246 19.9224 39.2816 19.9715C40.2006 20.0142 40.6202 20.0752 40.9017 20.1834L41.015 20.2322C41.1908 20.3188 41.4108 20.4771 41.6224 20.6561C41.8354 20.8361 42.0486 21.0454 42.2103 21.242C42.5315 21.6326 42.8754 22.2874 42.9769 22.7137C42.9928 22.7808 43.0062 22.8924 43.0179 23.035C43.0298 23.1809 43.0407 23.3691 43.0511 23.5955C43.072 24.0489 43.0901 24.6598 43.1048 25.4012C43.1342 26.8843 43.1506 28.8932 43.1497 31.2147C43.148 33.3438 43.1287 35.3578 43.099 36.8856C43.0841 37.6491 43.0666 38.2922 43.0472 38.7684C43.0375 39.0064 43.0266 39.2042 43.0159 39.3543C43.0057 39.4996 42.9951 39.6128 42.9808 39.6736C42.899 40.0217 42.6643 40.5463 42.4251 40.9285L42.3226 41.0819C42.1832 41.2806 41.9751 41.4983 41.7542 41.6893C41.5338 41.8798 41.2919 42.0519 41.0804 42.1561C40.7919 42.299 40.6365 42.3995 40.5501 42.4979C40.4739 42.5848 40.443 42.6804 40.4407 42.8485C40.4353 43.1235 40.3519 43.5132 40.2464 43.7254C40.2041 43.8104 40.1528 43.8915 40.0706 43.9569C39.9887 44.022 39.888 44.062 39.764 44.0887C39.5843 44.1274 39.3289 44.1422 38.9544 44.1463L38.5394 44.1473C38.1502 44.1473 37.7735 44.1329 37.4788 44.1092C37.3317 44.0974 37.2024 44.0834 37.1019 44.0672C37.052 44.0592 37.007 44.0498 36.9691 44.0399C36.952 44.0354 36.9327 44.0295 36.9134 44.0223L36.8577 43.9959C36.7971 43.9577 36.7547 43.8963 36.722 43.8309C36.6881 43.7631 36.6572 43.6758 36.6292 43.5672C36.5788 43.3716 36.5328 43.0909 36.4915 42.6971H27.4115L27.3685 43.159C27.3512 43.3343 27.3114 43.5108 27.2611 43.6541C27.2359 43.7256 27.2068 43.7925 27.1741 43.8485C27.1436 43.9008 27.1011 43.9585 27.0433 43.9949C27.0091 44.0166 26.9676 44.0309 26.9339 44.0399C26.8964 44.0498 26.852 44.0591 26.8031 44.0672C26.7047 44.0835 26.579 44.0972 26.4359 44.1092C26.1489 44.1333 25.7827 44.1485 25.4056 44.1502C24.9635 44.1519 24.5961 44.1344 24.3197 44.0975C24.1818 44.079 24.0627 44.055 23.9661 44.0252C23.8739 43.9967 23.7842 43.9571 23.723 43.8963L23.721 43.8953C23.6734 43.8467 23.6365 43.7814 23.6077 43.7156C23.578 43.6475 23.5524 43.568 23.5316 43.4842C23.49 43.3169 23.4652 43.1194 23.4661 42.9305C23.467 42.7948 23.4631 42.6931 23.4534 42.6151C23.4437 42.537 23.4283 42.493 23.4124 42.4656C23.3877 42.423 23.343 42.3875 23.1644 42.3514C23.0231 42.3232 22.8397 42.2385 22.6624 42.1356C22.5266 42.0567 22.3855 41.963 22.2581 41.8631L22.1361 41.7615C21.8281 41.4896 21.4216 40.9534 21.2249 40.5613C21.1385 40.3892 21.07 40.229 21.0189 39.9617C20.9688 39.6998 20.9358 39.3354 20.9124 38.7508C20.8657 37.5798 20.8586 35.4946 20.8509 31.5145C20.8458 29.2332 20.8561 27.0865 20.8763 25.4656C20.8864 24.6553 20.8989 23.9756 20.9134 23.4764C20.9206 23.227 20.9277 23.0213 20.9359 22.867C20.9437 22.7177 20.953 22.6043 20.9642 22.5477C21.0462 22.139 21.384 21.5527 21.765 21.1307C21.9434 20.9338 22.1449 20.7331 22.3255 20.5682C22.502 20.407 22.6701 20.2696 22.7806 20.2078C22.8494 20.1695 22.963 20.1373 23.0882 20.1102C23.22 20.0816 23.3857 20.0543 23.5726 20.0281C23.9469 19.9758 24.4149 19.9299 24.8861 19.9031C25.8276 19.8498 29.6982 19.834 33.4827 19.8699ZM25.4027 42.6092C25.2409 42.6092 25.1169 42.6132 25.0218 42.6219C24.9252 42.6308 24.8694 42.6446 24.8372 42.659C24.8114 42.6706 24.8058 42.68 24.8021 42.6883C24.7949 42.7043 24.7874 42.7357 24.7874 42.8016C24.7874 42.8686 24.7948 42.9009 24.8021 42.9168C24.8058 42.925 24.8116 42.9337 24.8372 42.9451C24.8694 42.9595 24.925 42.9735 25.0218 42.9822C25.117 42.9908 25.2408 42.994 25.4027 42.994C25.5645 42.994 25.6883 42.9908 25.7835 42.9822C25.8805 42.9735 25.9368 42.9595 25.9691 42.9451C25.9941 42.9339 25.9995 42.9249 26.0032 42.9168C26.0105 42.9009 26.0179 42.8686 26.0179 42.8016C26.0179 42.7355 26.0104 42.7042 26.0032 42.6883C25.9995 42.68 25.9942 42.6707 25.9681 42.659C25.9358 42.6446 25.8803 42.6308 25.7835 42.6219C25.6884 42.6132 25.5645 42.6092 25.4027 42.6092ZM37.9632 42.6199C37.8529 42.628 37.7878 42.6412 37.7503 42.6551C37.7401 42.6589 37.7335 42.6617 37.7298 42.6639L37.7357 42.7293L37.7366 42.7303C37.7435 42.7657 37.755 42.7878 37.7698 42.8045C37.7856 42.8222 37.8129 42.8427 37.8646 42.8631C37.9741 42.9063 38.1572 42.9347 38.4622 42.951C38.6387 42.9604 38.773 42.9653 38.8753 42.9627C38.9799 42.96 39.0381 42.9494 39.0706 42.9373C39.0948 42.9283 39.0955 42.9222 39.097 42.9188C39.1034 42.9044 39.1107 42.8731 39.1107 42.8016C39.1107 42.7331 39.1029 42.7034 39.096 42.6893C39.0932 42.6834 39.0878 42.6724 39.054 42.659C39.0143 42.6433 38.948 42.6295 38.8363 42.6209C38.726 42.6124 38.5822 42.6092 38.3948 42.6092C38.2125 42.6092 38.0714 42.6121 37.9632 42.6199ZM31.9085 21.2371C28.0898 21.2414 26.077 21.248 24.9427 21.2928C23.8096 21.3375 23.5776 21.4194 23.306 21.5613C22.9098 21.7702 22.6124 22.0927 22.3968 22.5555C22.1481 23.0916 22.074 23.5884 22.0706 24.8865L22.0687 26.4051C22.488 26.4075 22.7942 26.4284 23.015 26.4647C23.1935 26.494 23.3324 26.5351 23.431 26.5936L23.5159 26.658L23.5169 26.66C23.573 26.7172 23.611 26.8 23.639 26.8826C23.6684 26.9696 23.6937 27.0747 23.7132 27.1922C23.7523 27.4279 23.7736 27.7265 23.7728 28.0516C23.7711 28.4955 23.7575 28.7903 23.7015 28.993C23.6723 29.0986 23.6296 29.1861 23.5667 29.2596C23.5042 29.3326 23.429 29.3833 23.347 29.4246C23.2362 29.4803 23.0787 29.5263 22.9193 29.5584C22.7578 29.5909 22.5814 29.6121 22.429 29.6121H22.0726L22.1497 33.0037C22.5462 33.0454 22.8361 33.092 23.0452 33.1424C23.2694 33.1964 23.4227 33.2593 23.513 33.3406C23.5727 33.3946 23.6151 33.4734 23.6448 33.5516C23.6758 33.633 23.7006 33.7311 23.72 33.8397C23.7591 34.0572 23.7783 34.3321 23.7757 34.6365C23.7732 35.0458 23.7569 35.3242 23.6927 35.5291C23.6405 35.6955 23.5585 35.81 23.4447 35.908L23.3206 36.0018C23.1987 36.0839 23.0352 36.1539 22.8724 36.2029C22.7095 36.252 22.5345 36.2839 22.387 36.284L22.0687 36.283C22.0679 39.0449 22.1423 39.4098 22.4339 39.9871C22.6649 40.4419 23.0089 40.8122 23.349 40.991C23.5914 41.1182 23.8545 41.1962 25.0003 41.2381C26.1429 41.2799 28.1379 41.2858 31.8236 41.285C34.9989 41.285 37.0116 41.2733 38.2855 41.2381C38.9226 41.2205 39.3723 41.197 39.6888 41.1668C40.0091 41.1362 40.1783 41.0991 40.2659 41.0623C40.5498 40.9411 40.9708 40.6411 41.1917 40.4012L41.5775 39.9813V22.536C40.9455 21.8607 40.5704 21.5718 40.3421 21.4529C40.2737 21.4181 40.1304 21.3817 39.8294 21.3504C39.534 21.3197 39.1038 21.2963 38.4769 21.2791C37.8504 21.2619 37.0305 21.2503 35.9564 21.244L31.9085 21.2371ZM22.3675 34.2283C22.3234 34.2289 22.2674 34.2389 22.2132 34.2557C22.1562 34.2734 22.1156 34.2945 22.097 34.3094C22.1027 34.3047 22.0962 34.3079 22.0853 34.3319C22.0753 34.3537 22.0656 34.3847 22.057 34.4236C22.0396 34.5022 22.0317 34.6006 22.0384 34.6961C22.0476 34.8181 22.0759 34.8779 22.1029 34.907C22.1258 34.9317 22.1666 34.9549 22.2572 34.9549C22.3712 34.9549 22.3916 34.9301 22.4017 34.9149C22.4258 34.8784 22.4476 34.7933 22.4476 34.5916C22.4476 34.4463 22.4265 34.341 22.3988 34.2781C22.372 34.2174 22.3555 34.2266 22.3675 34.2283ZM22.3714 27.5574C22.3277 27.5574 22.2702 27.5674 22.2142 27.5848C22.1571 27.6025 22.1157 27.6228 22.097 27.6375C22.1032 27.6324 22.0983 27.6354 22.0872 27.66C22.0773 27.6821 22.0665 27.7134 22.0579 27.7528C22.0407 27.8314 22.0327 27.9298 22.0394 28.0252C22.0477 28.1476 22.0762 28.2071 22.1029 28.2361C22.1254 28.2606 22.1661 28.284 22.2572 28.284C22.3717 28.284 22.3918 28.2598 22.4017 28.2449C22.4257 28.2087 22.4476 28.1235 22.4476 27.9207C22.4476 27.7751 22.4263 27.67 22.3988 27.6072C22.3702 27.5422 22.3542 27.5574 22.3714 27.5574Z" fill="url(#paint2_linear_3198_3947)"/>
<defs>
<linearGradient id="paint0_linear_3198_3947" x1="40.0406" y1="44.001" x2="22.0908" y2="21.491" gradientUnits="userSpaceOnUse">
<stop stop-color="#A687F6"/>
<stop offset="1" stop-color="#BDA7F3"/>
</linearGradient>
<linearGradient id="paint1_linear_3198_3947" x1="40.0406" y1="44.001" x2="22.0908" y2="21.491" gradientUnits="userSpaceOnUse">
<stop stop-color="#A687F6"/>
<stop offset="1" stop-color="#BDA7F3"/>
</linearGradient>
<linearGradient id="paint2_linear_3198_3947" x1="40.0406" y1="44.001" x2="22.0908" y2="21.491" gradientUnits="userSpaceOnUse">
<stop stop-color="#A687F6"/>
<stop offset="1" stop-color="#BDA7F3"/>
</linearGradient>
</defs>
</svg>
