<svg width="64" height="64" viewBox="0 0 64 64" fill="none" xmlns="http://www.w3.org/2000/svg">
<rect width="64" height="64" rx="12" fill="#211D32" fill-opacity="0.25"/>
<rect x="0.5" y="0.5" width="63" height="63" rx="11.5" stroke="#393257" stroke-opacity="0.5"/>
<path fill-rule="evenodd" clip-rule="evenodd" d="M29.8113 20.0408C30.643 19.8812 31.6877 19.8151 32.5975 19.867C33.3939 19.9118 34.508 20.0668 35.0779 20.2098C35.6503 20.3551 36.7662 20.7957 37.5613 21.1893L37.9813 21.4041C38.9049 21.8978 39.4694 22.3652 40.5672 23.4793C41.6428 24.5702 42.2956 25.4057 42.7352 26.2615C43.0757 26.9266 43.5345 28.0504 43.7537 28.7625L43.8631 29.1375C44.094 29.9814 44.1537 30.6433 44.1492 31.9666C44.1441 33.2343 44.0425 34.2295 43.8328 34.9939C43.6627 35.615 43.2648 36.6595 42.9451 37.324C42.6649 37.9096 42.1061 38.8 41.6229 39.4432L41.4207 39.7019C40.8997 40.3437 39.9961 41.2292 39.4031 41.6746C38.8126 42.1165 37.7564 42.7467 37.0506 43.0769C36.3443 43.4067 35.2695 43.7828 34.6502 43.9139C34.0314 44.0429 32.8032 44.1502 31.9119 44.1502C30.9082 44.1502 29.8306 44.0312 29.0828 43.8377C28.4225 43.6663 27.3872 43.2908 26.7733 43.0018C26.1578 42.7102 25.1788 42.1135 24.5897 41.6727C23.9985 41.2303 23.1511 40.423 22.7 39.8738C22.2522 39.3286 21.6444 38.4549 21.3485 37.9305C21.0509 37.4029 20.5986 36.3156 20.3397 35.5125C19.9484 34.293 19.864 33.7049 19.8504 32.1375C19.8402 30.832 19.9271 29.8963 20.1385 29.1092L20.2117 28.8543C20.4106 28.2117 20.7831 27.2689 21.1024 26.6062C21.5494 25.6807 22.1697 24.7866 22.9608 23.9236L23.2205 23.6492C23.8619 22.994 24.7144 22.2529 25.2469 21.9002L25.4891 21.7449C26.0024 21.4259 26.6699 21.0661 27.1766 20.8367L27.4149 20.7332C28.0077 20.4898 29.0829 20.1807 29.8113 20.0408ZM27.7889 32.7107L27.8778 33.8738C27.933 34.5959 28.1065 35.7602 28.2606 36.4568L28.41 37.0496C28.5877 37.6986 28.8377 38.4734 29.0438 38.9959L29.157 39.2693C29.4423 39.9327 29.8671 40.7452 30.1629 41.1873C30.3321 41.4398 30.5451 41.7134 30.7528 41.949C30.9623 42.1868 31.1585 42.3768 31.2918 42.4715L31.2928 42.4725C31.4306 42.5716 31.5936 42.6627 31.744 42.7283C31.9002 42.7965 32.0228 42.8289 32.0848 42.8289L32.1248 42.8201C32.1454 42.8138 32.1735 42.8032 32.2098 42.7859C32.2781 42.7535 32.3616 42.7044 32.4539 42.6414C32.6383 42.5156 32.8503 42.3398 33.0428 42.1463C33.4323 41.7563 33.9515 41.0943 34.1912 40.6834L34.1922 40.6824C34.4344 40.2716 34.8251 39.3962 35.0584 38.7439L35.243 38.1961C35.4335 37.6029 35.629 36.9101 35.7293 36.4568L35.8358 35.9197C35.9446 35.3125 36.0547 34.5337 36.1102 33.9559L36.2283 32.7098L27.7889 32.7107ZM37.4178 34.0662C37.3596 34.8994 37.1194 36.3482 36.8807 37.2947C36.6733 38.1229 36.2876 39.2636 35.9666 40.0144L35.8338 40.3103C35.4993 41.0181 35.018 41.8598 34.7596 42.1814C34.6408 42.3292 34.5434 42.4691 34.4822 42.575C34.4931 42.5737 34.5046 42.5737 34.5164 42.5721C34.5819 42.563 34.6578 42.5492 34.7401 42.532L35.0018 42.4695C35.3581 42.3728 36.2592 41.9837 37.0018 41.6004L37.3572 41.408C38.1613 40.9522 38.8083 40.4319 39.6785 39.5535L40.0096 39.2098C40.7491 38.4214 41.2684 37.7143 41.6229 37.0193C41.9575 36.3658 42.3189 35.493 42.4266 35.0848C42.5362 34.6705 42.6757 33.9296 42.7342 33.4422L42.8221 32.7156L37.5115 32.7117L37.4178 34.0662ZM21.1502 32.7107L21.2459 33.4383L21.3074 33.8435C21.3803 34.278 21.481 34.7738 21.5633 35.0848L21.616 35.2576C21.7631 35.7073 22.0765 36.4473 22.368 37.0193C22.7617 37.7889 23.3967 38.6289 24.2283 39.4734C24.9256 40.1806 25.9455 41.0209 26.4881 41.3396C27.0374 41.6623 27.9808 42.0919 28.575 42.2918C28.8749 42.3924 29.1512 42.4735 29.3533 42.5242C29.379 42.5307 29.4038 42.5345 29.4266 42.5398C29.3989 42.4937 29.3681 42.4416 29.3319 42.3875L29.1785 42.1717C28.9416 41.854 28.4687 40.9758 28.1248 40.2234C27.7772 39.4628 27.3111 38.1099 27.0858 37.2088C26.8888 36.4226 26.6813 35.2438 26.5867 34.4051L26.5535 34.0682L26.4432 32.7098L21.1502 32.7107ZM31.8748 21.2781C31.6111 21.3122 31.335 21.4642 31.0096 21.784C30.7071 22.0795 30.2172 22.7037 29.9276 23.1658C29.7105 23.5121 29.4303 24.0482 29.2195 24.5086L29.0369 24.9334C28.8386 25.4415 28.5213 26.4731 28.3328 27.2205C28.1689 27.8705 27.9886 28.9318 27.9012 29.7332L27.8699 30.0584L27.7615 31.3904H36.2313C36.0654 29.4612 35.894 28.2745 35.7361 27.5232L35.6678 27.2195C35.4883 26.4743 35.1379 25.3679 34.8924 24.7644C34.6774 24.236 34.3182 23.5312 34.0438 23.0867L33.9315 22.9139C33.6467 22.4971 33.1877 21.9498 32.9158 21.7C32.608 21.4168 32.2682 21.2705 31.9871 21.2703L31.8748 21.2781ZM29.3875 21.4715C29.3228 21.4869 29.2404 21.5092 29.1463 21.5369C28.9579 21.5924 28.7251 21.669 28.4949 21.7518C28.0387 21.9159 27.1746 22.3138 26.5799 22.6326L26.5789 22.6316C25.9953 22.9463 25.0115 23.699 24.4002 24.3025C23.7893 24.9057 22.9837 25.9318 22.6141 26.576C22.2397 27.2285 21.8163 28.1403 21.6737 28.5955C21.531 29.0563 21.3528 29.8824 21.2811 30.4246C21.2401 30.7368 21.2244 30.9839 21.2303 31.1551C21.2333 31.2407 21.2407 31.3003 21.2508 31.3367C21.2566 31.3373 21.2633 31.3381 21.2703 31.3387C21.3131 31.3423 21.3726 31.3455 21.4481 31.3484C21.5991 31.3544 21.8083 31.3589 22.0604 31.3611C22.5646 31.3656 23.2384 31.3622 23.9588 31.3494L26.4451 31.3055C26.6362 29.0008 26.8677 27.6084 27.0877 26.7215C27.3107 25.8229 27.7137 24.5861 27.9871 23.9646C28.2594 23.3458 28.732 22.5098 29.0438 22.0984C29.1938 21.9004 29.3298 21.7116 29.4276 21.5672C29.4573 21.5233 29.4813 21.4827 29.5028 21.449C29.4882 21.4501 29.4512 21.4563 29.3875 21.4715ZM34.8973 21.9187C35.1645 22.3338 35.5719 23.0572 35.8074 23.531C36.0431 24.0086 36.3956 24.8996 36.5936 25.5164C36.791 26.137 37.0708 27.3723 37.2137 28.2703C37.3559 29.1641 37.4923 30.2449 37.5164 30.6766L37.5526 31.3035H42.827C42.7459 30.3437 42.6554 29.7428 42.5721 29.3494C42.4862 28.9443 42.119 27.998 41.7518 27.2498C41.3898 26.5091 40.6917 25.4447 40.2059 24.8924C39.7188 24.3386 38.7959 23.5276 38.16 23.0975C37.5203 22.6619 36.6217 22.1591 36.1707 21.9803C35.7088 21.7972 35.0923 21.594 34.8035 21.5281L34.619 21.4852L34.8973 21.9187Z" fill="url(#paint0_linear_3198_3949)"/>
<defs>
<linearGradient id="paint0_linear_3198_3949" x1="40.7715" y1="44" x2="23.2285" y2="20" gradientUnits="userSpaceOnUse">
<stop stop-color="#A687F6"/>
<stop offset="1" stop-color="#BDA7F3"/>
</linearGradient>
</defs>
</svg>
