<svg width="64" height="64" viewBox="0 0 64 64" fill="none" xmlns="http://www.w3.org/2000/svg">
<rect width="64" height="64" rx="12" fill="#211D32" fill-opacity="0.25"/>
<rect x="0.5" y="0.5" width="63" height="63" rx="11.5" stroke="#393257" stroke-opacity="0.5"/>
<path d="M40.6035 37.1219C40.7217 37.1435 40.8215 37.2225 40.8916 37.3094C40.9454 37.3762 40.9901 37.4568 41.0176 37.5438L41.0391 37.6336C41.0559 37.7359 41.0278 37.844 40.9805 37.9481C40.9323 38.0541 40.8565 38.1733 40.7559 38.3065C40.5542 38.5735 40.2377 38.9167 39.7959 39.3534C39.4472 39.698 39.1002 40.0129 38.8213 40.242C38.6822 40.3564 38.5574 40.4513 38.4571 40.5184C38.4073 40.5517 38.3607 40.5798 38.3194 40.6004C38.2845 40.6178 38.2304 40.6414 38.1748 40.6415C38.1285 40.6414 38.084 40.6278 38.0498 40.6141C38.0126 40.5992 37.9725 40.5782 37.9317 40.5545C37.8497 40.507 37.7533 40.4403 37.6494 40.3612C37.4413 40.2026 37.1931 39.9857 36.9532 39.7479C36.6289 39.4267 36.4116 39.1868 36.292 38.9969C36.2318 38.9012 36.1897 38.808 36.1758 38.7157C36.1613 38.6188 36.1789 38.5298 36.2256 38.45L36.2744 38.3788C36.328 38.3112 36.396 38.2541 36.4668 38.2108C36.5601 38.1538 36.6737 38.1113 36.7852 38.1122C36.8596 38.1122 36.938 38.1418 37.0147 38.1825C37.0949 38.225 37.1905 38.289 37.3047 38.3768C37.5145 38.5381 37.7973 38.7902 38.1797 39.1629L39.1455 38.1922C39.4428 37.893 39.7442 37.6256 39.9903 37.4344C40.1127 37.3394 40.2243 37.2607 40.3174 37.2069C40.3636 37.1802 40.4092 37.1569 40.4512 37.1415C40.4879 37.128 40.5449 37.1113 40.6035 37.1219Z" fill="url(#paint0_linear_3198_3951)"/>
<path fill-rule="evenodd" clip-rule="evenodd" d="M37.6719 33.3465C38.1765 33.2708 38.9822 33.2604 39.4737 33.3221C39.9631 33.3854 40.6424 33.576 40.9912 33.7518L40.9922 33.7528C41.3326 33.9262 41.9104 34.3071 42.2813 34.6073C42.714 34.9539 43.2126 35.6429 43.585 36.3915C43.8619 36.9486 44.0194 37.2878 44.0938 37.6415C44.1683 37.9959 44.1581 38.3572 44.1231 38.954C44.0805 39.7 43.959 40.3315 43.7647 40.7967L43.6768 40.9862C43.474 41.3769 43.0091 42.0324 42.6407 42.4491C42.2643 42.8745 41.5267 43.4258 40.9893 43.6844C40.5853 43.8791 40.2782 43.9996 39.9121 44.0682C39.5495 44.1362 39.135 44.152 38.5186 44.1502C37.8731 44.1485 37.4661 44.1331 37.1162 44.0575C36.7622 43.9809 36.4729 43.845 36.0596 43.618C35.5346 43.3286 34.801 42.7406 34.418 42.3016C33.9375 41.7508 33.6069 41.1186 33.3565 40.2743C33.0899 39.3733 33.0215 38.804 33.1055 38.1122C33.1678 37.5993 33.407 36.8114 33.6397 36.3485C33.8742 35.882 34.4277 35.1729 34.875 34.7616C35.3147 34.3573 35.9157 33.9035 36.2178 33.7518C36.5214 33.5994 37.1732 33.4214 37.6719 33.3465ZM38.6026 34.6415C38.0559 34.6415 37.5056 34.7335 37.1084 34.8817L36.9483 34.9481C36.5905 35.1137 36.0085 35.5444 35.67 35.8973C35.3713 36.2087 35.033 36.6859 34.8614 37.0223L34.7989 37.1571C34.6629 37.4877 34.544 38.2178 34.544 38.7723C34.544 39.047 34.5688 39.36 34.6094 39.6415C34.6505 39.9263 34.7054 40.1667 34.7608 40.3016C34.8484 40.516 35.0713 40.8711 35.3106 41.1864L35.5508 41.4813C35.8631 41.8361 36.4227 42.2838 36.7823 42.4715C37.2586 42.7213 37.7282 42.8133 38.6026 42.8133C39.4787 42.8133 39.9446 42.7215 40.4229 42.4715L40.5674 42.3885C40.925 42.1671 41.4112 41.7676 41.7129 41.4374L41.8604 41.2645C42.1925 40.85 42.448 40.3491 42.6006 39.8036C42.7838 39.1511 42.8302 38.6055 42.752 38.1092C42.6862 37.6934 42.5341 37.1711 42.4239 36.954L42.3057 36.7508C42.1573 36.5168 41.9313 36.2051 41.7305 35.9666C41.4762 35.6646 40.8869 35.2348 40.4297 35.0223C39.852 34.7546 39.3025 34.6398 38.6026 34.6415Z" fill="url(#paint1_linear_3198_3951)"/>
<path fill-rule="evenodd" clip-rule="evenodd" d="M24.42 19.9061C25.0284 19.8593 26.599 19.8337 30.0401 19.8631L34.1397 19.912L34.2012 19.9129L39.7012 25.4207L39.6993 28.6131C39.6992 29.7881 39.6863 30.5797 39.6524 31.0848C39.6355 31.3361 39.6126 31.5241 39.5821 31.6551C39.5669 31.72 39.5483 31.7789 39.5225 31.827C39.5039 31.8616 39.4749 31.9029 39.4307 31.9315L39.3819 31.9549C39.2967 31.9832 39.1975 31.9884 39.1075 31.9793C39.0394 31.9725 38.9676 31.9565 38.9024 31.9305L38.8399 31.9012C38.7766 31.8664 38.7431 31.8055 38.7227 31.7557C38.7008 31.7022 38.6832 31.6337 38.668 31.5497C38.6375 31.3804 38.611 31.1199 38.5869 30.7274C38.5396 29.957 38.5 28.6558 38.458 26.4842L36.4971 26.4041C35.4966 26.3633 34.9492 26.3379 34.5977 26.2616C34.4166 26.2222 34.2806 26.1676 34.1573 26.0887C34.0366 26.0115 33.9342 25.9138 33.8203 25.7997C33.7053 25.6848 33.602 25.5788 33.5225 25.4198C33.4437 25.2621 33.3925 25.0628 33.3555 24.7645C33.2837 24.1861 33.258 23.1808 33.2178 21.2596H23.5118L22.2608 22.3514L22.2188 31.4725C22.2007 35.4 22.1998 37.7172 22.2305 39.1161C22.2458 39.8153 22.2692 40.2814 22.3018 40.6034C22.3345 40.9265 22.3751 41.0939 22.4209 41.201L22.4776 41.3163C22.5413 41.4342 22.6265 41.5591 22.7207 41.6747C22.8476 41.8301 22.9826 41.9577 23.0928 42.0262L23.1602 42.0643C23.3297 42.1495 23.5923 42.2111 24.2159 42.2547C24.925 42.3044 26.0751 42.3296 28.041 42.3553C29.2937 42.3708 30.4565 42.3941 31.3213 42.4188C31.7537 42.4311 32.1129 42.4435 32.3711 42.4559C32.4998 42.4621 32.6047 42.4684 32.6817 42.4745C32.7201 42.4775 32.7533 42.48 32.7793 42.4832C32.7993 42.4857 32.8316 42.4905 32.8575 42.4999C32.9905 42.5481 33.0583 42.6761 33.0879 42.828C33.1181 42.9824 33.1181 43.2024 33.084 43.5067L33.0694 43.6385L32.9366 43.6395L28.4698 43.6913C27.0905 43.7067 25.9103 43.7026 25.0244 43.6805C24.5816 43.6694 24.2103 43.6536 23.9248 43.6336C23.6447 43.6141 23.4327 43.5891 23.3164 43.5565C22.9398 43.4506 22.3847 43.1462 22.0703 42.8739C21.7921 42.6341 21.453 42.1915 21.253 41.8192L21.1758 41.6649C21.0188 41.3185 20.9415 40.9465 20.8994 39.6434C20.8572 38.3362 20.8505 36.0687 20.8496 31.9139C20.8488 29.1971 20.8651 26.8814 20.8946 25.1961C20.9093 24.3536 20.9274 23.6677 20.9483 23.1678C20.9587 22.9183 20.9706 22.7141 20.9825 22.5594C20.9939 22.4101 21.0065 22.2935 21.0235 22.2293L21.0694 22.0809C21.1973 21.718 21.459 21.2613 21.6983 20.9891C21.8324 20.8366 21.9936 20.6757 22.1455 20.5399C22.2575 20.4398 22.3695 20.3482 22.4649 20.2831L22.5547 20.2274C22.6215 20.1901 22.7252 20.1582 22.8399 20.1297C22.9601 20.0999 23.1087 20.0706 23.2744 20.0428C23.6063 19.9872 24.0148 19.9373 24.42 19.9061ZM34.5811 22.3827C34.5582 22.6254 34.544 22.9638 34.544 23.3377C34.544 23.8316 34.5623 24.1834 34.6016 24.4315C34.6416 24.6837 34.7 24.8034 34.7578 24.8612C34.8176 24.9205 34.9403 24.9796 35.211 25.0194C35.4777 25.0586 35.861 25.076 36.4121 25.076H37.5508C36.4306 23.9574 35.6798 23.2192 35.1944 22.7557C34.9333 22.5065 34.7502 22.3381 34.6289 22.2323C34.6195 22.224 34.6102 22.2163 34.6016 22.2088C34.5945 22.2578 34.5874 22.3159 34.5811 22.3827Z" fill="url(#paint2_linear_3198_3951)"/>
<path d="M27.9385 35.701C28.85 35.6976 29.43 35.7078 29.8047 35.7469C30.1708 35.7852 30.3872 35.8546 30.5166 36.0135C30.6052 36.1223 30.6797 36.2377 30.6797 36.3729C30.6797 36.4742 30.6382 36.5639 30.5801 36.6483L30.5176 36.7313C30.39 36.8889 30.1783 36.9592 29.8291 36.9979C29.4732 37.0373 28.9281 37.0472 28.0811 37.0438C27.5007 37.0421 26.9437 37.0305 26.5137 37.0135C26.299 37.005 26.1148 36.995 25.9746 36.9842C25.9046 36.9788 25.8442 36.9736 25.7959 36.9676C25.7515 36.9621 25.7059 36.9549 25.6729 36.9442C25.5622 36.9082 25.4704 36.8258 25.4063 36.7362C25.3412 36.6452 25.2937 36.5311 25.2832 36.4149C25.274 36.3104 25.2845 36.2013 25.3096 36.1073C25.327 36.0421 25.3559 35.9672 25.4024 35.9081L25.4551 35.8553C25.483 35.8333 25.5143 35.8229 25.5293 35.8182C25.5492 35.812 25.5723 35.8069 25.5948 35.8026C25.6399 35.7939 25.6977 35.7864 25.7647 35.7791C25.9 35.7646 26.084 35.7512 26.3018 35.7401C26.738 35.7179 27.3185 35.7027 27.9385 35.701Z" fill="url(#paint3_linear_3198_3951)"/>
<path d="M26.3379 32.1551C26.9616 32.1238 28.0348 32.1266 29.8858 32.1463C31.9426 32.1686 33.0144 32.1824 33.5703 32.2332C33.7102 32.246 33.8222 32.2624 33.9112 32.2821C33.9987 32.3014 34.0734 32.3265 34.1328 32.3641C34.1971 32.4048 34.2419 32.4583 34.2657 32.5243C34.2868 32.583 34.2881 32.6426 34.2881 32.6854C34.2881 32.7282 34.2865 32.7879 34.2657 32.8465C34.2423 32.9122 34.1987 32.9658 34.1348 33.0067C34.0756 33.0446 34.001 33.0703 33.9141 33.0897C33.826 33.1093 33.7154 33.1249 33.5772 33.1375C33.0271 33.188 31.9656 33.201 29.9297 33.2215C28.6714 33.2335 27.5996 33.2266 26.8291 33.2049C26.4446 33.1941 26.1331 33.1803 25.9102 33.162C25.7992 33.1528 25.7069 33.1424 25.6377 33.1307C25.6034 33.1249 25.5705 33.1174 25.543 33.1092C25.5229 33.1032 25.4788 33.09 25.4444 33.0575L25.4434 33.0565C25.3633 32.9794 25.3252 32.8706 25.3145 32.7694C25.3037 32.6665 25.319 32.5531 25.3672 32.453L25.418 32.3768C25.4773 32.3087 25.5637 32.2645 25.6739 32.2342C25.8173 32.1948 26.0281 32.1707 26.3379 32.1551Z" fill="url(#paint4_linear_3198_3951)"/>
<path d="M28.669 28.3338C30.0093 28.3338 30.7651 28.3416 31.1944 28.3836C31.4066 28.4044 31.5596 28.4348 31.667 28.4891C31.7239 28.5179 31.7712 28.5545 31.8076 28.6014C31.8435 28.6475 31.8639 28.6965 31.877 28.742L31.8946 28.8299C31.9057 28.9191 31.897 29.0126 31.876 29.0975C31.848 29.2101 31.7927 29.3236 31.711 29.4081L31.7119 29.409C31.6395 29.4845 31.523 29.5264 31.3946 29.5555C31.2588 29.5863 31.0776 29.6097 30.8448 29.6268C30.6113 29.644 30.3202 29.656 29.9629 29.6629L28.6826 29.6698C27.9377 29.6681 27.2312 29.6565 26.6924 29.6395C26.4233 29.631 26.1949 29.6209 26.0244 29.6102C25.9393 29.6048 25.8666 29.5995 25.8106 29.5936C25.7603 29.5883 25.708 29.5815 25.6729 29.5702C25.5622 29.5341 25.4704 29.4517 25.4063 29.3622C25.3412 29.2712 25.2937 29.1571 25.2832 29.0409C25.2739 28.9364 25.2845 28.8273 25.3096 28.7332C25.3328 28.6467 25.3759 28.543 25.4541 28.4813C25.474 28.4655 25.4944 28.4571 25.5049 28.453C25.5173 28.4482 25.5301 28.445 25.541 28.4422C25.563 28.4366 25.5885 28.4317 25.6153 28.4276C25.6694 28.4194 25.741 28.4121 25.8262 28.4051C25.9978 28.3911 26.2349 28.3784 26.5186 28.368C27.0864 28.3471 27.8486 28.3338 28.669 28.3338Z" fill="url(#paint5_linear_3198_3951)"/>
<defs>
<linearGradient id="paint0_linear_3198_3951" x1="40.9061" y1="44.001" x2="23.1496" y2="20.7213" gradientUnits="userSpaceOnUse">
<stop stop-color="#A687F6"/>
<stop offset="1" stop-color="#BDA7F3"/>
</linearGradient>
<linearGradient id="paint1_linear_3198_3951" x1="40.9061" y1="44.001" x2="23.1496" y2="20.7213" gradientUnits="userSpaceOnUse">
<stop stop-color="#A687F6"/>
<stop offset="1" stop-color="#BDA7F3"/>
</linearGradient>
<linearGradient id="paint2_linear_3198_3951" x1="40.9061" y1="44.001" x2="23.1496" y2="20.7213" gradientUnits="userSpaceOnUse">
<stop stop-color="#A687F6"/>
<stop offset="1" stop-color="#BDA7F3"/>
</linearGradient>
<linearGradient id="paint3_linear_3198_3951" x1="40.9061" y1="44.001" x2="23.1496" y2="20.7213" gradientUnits="userSpaceOnUse">
<stop stop-color="#A687F6"/>
<stop offset="1" stop-color="#BDA7F3"/>
</linearGradient>
<linearGradient id="paint4_linear_3198_3951" x1="40.9061" y1="44.001" x2="23.1496" y2="20.7213" gradientUnits="userSpaceOnUse">
<stop stop-color="#A687F6"/>
<stop offset="1" stop-color="#BDA7F3"/>
</linearGradient>
<linearGradient id="paint5_linear_3198_3951" x1="40.9061" y1="44.001" x2="23.1496" y2="20.7213" gradientUnits="userSpaceOnUse">
<stop stop-color="#A687F6"/>
<stop offset="1" stop-color="#BDA7F3"/>
</linearGradient>
</defs>
</svg>
